<svg id="Capa_1" enable-background="new 0 0 512 512" height="512" viewBox="0 0 512 512" width="512" xmlns="http://www.w3.org/2000/svg"><g><path d="m438.86 512h-95.86l-87-16.01-87 16.01h-95.86c0-106.07 39.97-194.55 109.72-256l17.39-16.01h109.5l19.39 16.01c69.75 61.45 109.72 149.93 109.72 256z" fill="#fd435b"/><path d="m438.86 512h-95.86l-87-16.01v-256h53.75l19.39 16.01c69.75 61.45 109.72 149.93 109.72 256z" fill="#ce0102"/><path d="m343 512h-174c0-106.07 19.01-194.55 52.2-256l.13-16.01h69.42l.05 16.01c33.19 61.45 52.2 149.93 52.2 256z" fill="#ff7b49"/><path d="m290.8 256c33.19 61.45 52.2 149.93 52.2 256h-87v-272.01h34.75z" fill="#fd435b"/><path d="m354.51 141.54-25.37 41.32-13.39 16.01h-119l-13.89-16.01-25.37-41.32c-16.72-27.22-11.1-64.8 10.37-88.45v-53.09h30v65.45c0 14.74 8.18 28.37 21.34 35 .08.04.15.08.23.12 9.14 4.57 22.85 6.85 36.57 6.85 13.74 0 27.49-2.3 36.66-6.9 13.23-6.63 21.48-20.28 21.48-35.08v-65.44h30v53.09c21.47 23.65 27.09 61.23 10.37 88.45z" fill="#feeb9c"/><path d="m354.51 141.54-25.37 41.32-13.39 16.01h-59.75v-91.45c13.74 0 27.49-2.3 36.66-6.9 13.23-6.63 21.48-20.28 21.48-35.08v-65.44h30v53.09c21.47 23.65 27.09 61.23 10.37 88.45z" fill="#ffc550"/><path d="m182.86 182.86h146.28v73.14h-146.28z" fill="#ffbc27"/><path d="m256 182.86h73.14v73.14h-73.14z" fill="#ff9827"/></g></svg>